<svg width="167" height="26" viewBox="0 0 167 26" fill="none" xmlns="http://www.w3.org/2000/svg">
<path fill-rule="evenodd" clip-rule="evenodd" d="M34.3946 8.13248C33.0002 5.29694 30.0566 4.45394 27.1904 4.45394C25.796 4.45394 24.4017 4.76048 23.2397 5.22031C22.4651 5.75676 21.9228 6.29321 21.613 6.6764C21.8454 5.68012 22.3876 4.99039 23.2397 4.53058V2.38477C19.7538 2.38477 17.1975 2.38477 13.7891 2.38477V5.98666H19.289V14.1868C19.289 17.3288 18.5144 19.7812 14.951 19.7812C11.8525 19.7812 10.1482 18.4017 9.8384 15.6428H5.8877C6.42994 20.7008 10.0708 23.3831 14.951 23.3831C17.3524 23.3831 18.5144 22.77 19.9088 21.6205C19.6763 21.1607 19.5214 20.7008 19.4439 20.0878C19.6763 20.3943 19.9862 20.7774 20.296 21.2373C21.8454 23.1532 24.3242 23.8429 27.2678 23.8429C28.3523 23.8429 29.3594 23.7663 30.289 23.4597L28.8946 22.6168L26.7256 21.3906V20.7774C24.9439 20.6242 23.2397 19.8578 22.3876 18.4017C22.8524 17.2522 23.1622 15.8727 23.1622 14.4166C24.4017 14.8765 25.796 15.183 27.2678 15.3363C27.6551 15.413 28.0425 15.413 28.4298 15.4896L28.8946 15.2597L31.0636 14.0335L33.2326 15.2597L34.7044 16.1027C33.7748 13.3437 30.7537 12.5774 27.5777 12.1942C25.3312 11.9643 23.4721 11.5045 23.4721 9.89511C23.4721 8.51567 24.7115 7.44275 27.2678 7.44275C29.2819 7.44275 30.9861 8.43902 31.6833 9.51191L34.3946 8.13248Z" fill="white"/>
<path fill-rule="evenodd" clip-rule="evenodd" d="M37.1831 24.1493C38.5 24.3025 40.0493 24.2259 40.9788 23.3063C41.8309 22.4632 42.0633 21.2371 42.0633 20.0875V16.179C42.0633 14.6464 42.6056 13.4968 43.9999 13.2669V11.8875C42.6056 11.6575 42.0633 10.4314 42.0633 8.97525V5.06683C42.0633 3.91728 41.8309 2.61447 40.9788 1.8481C40.0493 0.851833 38.5 0.851833 37.1831 1.00511V2.38456C38.9648 2.23129 39.7394 3.22756 39.7394 5.2201V8.97525C39.7394 9.58838 39.662 10.508 39.8944 11.1211C40.2042 11.7342 40.9788 12.194 41.676 12.5772C40.9788 12.9604 40.2042 13.4202 39.8944 14.0333C39.662 14.6464 39.7394 15.566 39.7394 16.179V19.9342C39.7394 22.0801 39.0422 22.7698 37.1831 22.6932V24.1493Z" fill="white"/>
<path fill-rule="evenodd" clip-rule="evenodd" d="M31.0628 12.8838L33.6966 14.4165L36.3304 15.8726V18.938V22.0035L33.6966 23.5363L31.0628 25.0689L28.3515 23.5363L25.7178 22.0035V18.938V15.8726L28.3515 14.4165L31.0628 12.8838ZM31.0628 14.0333L33.2318 15.2595L35.3233 16.4857V18.938V21.3904L33.2318 22.6166L31.0628 23.9194L28.8938 22.6166L26.7248 21.3904V18.938V16.4857L28.8938 15.2595L31.0628 14.0333Z" fill="white"/>
<path fill-rule="evenodd" clip-rule="evenodd" d="M27.9651 19.4745V20.2409H27.4229V17.6353C27.8101 17.6353 28.1975 17.6353 28.6622 17.6353C29.9017 17.6353 29.9017 19.4745 28.6622 19.4745H27.9651ZM30.7538 19.3978H30.3665V20.2409H29.8242V17.6353H29.9017C30.289 17.6353 30.6763 17.6353 31.0637 17.6353C31.6059 17.6353 31.9932 17.9418 31.9932 18.5549C31.9932 18.9381 31.8383 19.2446 31.451 19.3212L32.1482 20.1643V20.2409H31.5285L30.7538 19.3978ZM33.465 17.6353C34.3171 17.6353 34.8594 18.1717 34.7819 18.9381C34.7819 19.7044 34.3171 20.3175 33.465 20.3175C32.6904 20.3175 32.1482 19.781 32.1482 18.9381C32.1482 18.1717 32.6904 17.6353 33.465 17.6353ZM27.9651 18.1717V18.9381H28.6622C29.2045 18.9381 29.2045 18.1717 28.6622 18.1717H27.9651ZM30.3665 18.1717V18.8614H31.0637C31.2961 18.8614 31.451 18.7848 31.451 18.5549C31.451 18.3249 31.2961 18.1717 31.0637 18.1717H30.3665ZM33.465 18.095C33.0003 18.095 32.6904 18.4782 32.6904 18.9381C32.6904 19.3978 33.0003 19.781 33.465 19.781C34.0073 19.781 34.2397 19.3978 34.2397 18.9381C34.2397 18.4782 34.0073 18.095 33.465 18.095Z" fill="white"/>
<path fill-rule="evenodd" clip-rule="evenodd" d="M6.81685 24.1493C5.49996 24.3025 4.02815 24.2259 3.02111 23.3063C2.169 22.4632 1.93661 21.2371 1.93661 20.0875V16.179C1.93661 14.6464 1.47182 13.4968 0 13.2669V11.8875C1.47182 11.6575 1.93661 10.4314 1.93661 8.97525V5.06683C1.93661 3.91728 2.169 2.61447 3.02111 1.8481C4.02815 0.851833 5.49996 0.851833 6.81685 1.00511V2.38456C5.03518 2.23129 4.338 3.22756 4.338 5.2201V8.97525C4.338 9.58838 4.338 10.508 4.1056 11.1211C3.79575 11.7342 3.02111 12.194 2.32393 12.5772C3.02111 12.9604 3.79575 13.4202 4.1056 14.0333C4.338 14.6464 4.338 15.566 4.338 16.179V19.9342C4.338 22.0801 4.95771 22.7698 6.81685 22.6932V24.1493Z" fill="white"/>
<path d="M53.4668 16.7916L52.7085 16.0333L55.7418 12.9999L52.7085 9.96659L53.4668 9.20825L56.5002 12.2416L59.5335 9.20825L60.2918 9.96659L57.2585 12.9999L60.2918 16.0333L59.5335 16.7916L56.5002 13.7583L53.4668 16.7916Z" fill="white"/>
<path d="M68.3359 5.99609H75.084V6.35742C74.8366 6.35742 74.6348 6.3737 74.4785 6.40625C74.3223 6.4388 74.1986 6.48763 74.1074 6.55273C74.0163 6.61784 73.9512 6.69596 73.9121 6.78711C73.8796 6.87174 73.8633 6.9694 73.8633 7.08008C73.8633 7.17122 73.8665 7.26888 73.873 7.37305C73.8861 7.4707 73.9089 7.57812 73.9414 7.69531C74.4102 9.58984 74.9831 11.4486 75.6602 13.2715C76.3438 15.0879 77.125 16.8913 78.0039 18.6816C78.4401 17.8288 78.8698 16.9499 79.293 16.0449C79.7161 15.1335 80.1133 14.209 80.4844 13.2715C80.8555 12.334 81.1875 11.3867 81.4805 10.4297C81.7734 9.46615 82.0143 8.5026 82.2031 7.53906V7.44141C82.2031 7.28516 82.1738 7.14193 82.1152 7.01172C82.0566 6.875 81.959 6.76107 81.8223 6.66992C81.6921 6.57227 81.5195 6.4974 81.3047 6.44531C81.0964 6.38672 80.8359 6.35742 80.5234 6.35742V5.99609H84.8398C84.612 6.71224 84.3483 7.46094 84.0488 8.24219C83.7493 9.02344 83.4238 9.81445 83.0723 10.6152C82.7272 11.4095 82.3659 12.207 81.9883 13.0078C81.6107 13.8086 81.2298 14.5866 80.8457 15.3418C80.4681 16.0905 80.097 16.8099 79.7324 17.5C79.3678 18.1901 79.0228 18.8249 78.6973 19.4043L75.2402 20C74.2507 17.9753 73.375 15.9375 72.6133 13.8867C71.8581 11.8359 71.207 9.75911 70.6602 7.65625C70.6016 7.51953 70.5137 7.3763 70.3965 7.22656C70.2858 7.07682 70.1361 6.93685 69.9473 6.80664C69.7585 6.67643 69.5306 6.56901 69.2637 6.48438C69.0033 6.39974 68.694 6.35742 68.3359 6.35742V5.99609ZM92.2422 20H85.6992V19.6387C86.0508 19.6387 86.3372 19.6029 86.5586 19.5312C86.7865 19.4531 86.9622 19.3522 87.0859 19.2285C87.2161 19.1048 87.304 18.9616 87.3496 18.7988C87.3952 18.6361 87.418 18.4635 87.418 18.2812V7.63672C87.418 7.50651 87.3919 7.36654 87.3398 7.2168C87.2943 7.06706 87.2064 6.93034 87.0762 6.80664C86.9525 6.67643 86.7799 6.56901 86.5586 6.48438C86.3372 6.39974 86.0508 6.35742 85.6992 6.35742V5.99609H92.2422V6.35742C91.8841 6.35742 91.5911 6.39648 91.3633 6.47461C91.1419 6.54622 90.9661 6.64714 90.8359 6.77734C90.7122 6.90104 90.6276 7.04427 90.582 7.20703C90.5365 7.36979 90.5137 7.54232 90.5137 7.72461V18.2812C90.5137 18.4115 90.5332 18.5547 90.5723 18.7109C90.6178 18.8672 90.6992 19.0137 90.8164 19.1504C90.9401 19.2871 91.1159 19.4043 91.3438 19.502C91.5716 19.5931 91.8711 19.6387 92.2422 19.6387V20ZM93.8242 5.99609H98.7266L106.119 14.9805V7.63672C106.119 7.50651 106.093 7.36654 106.041 7.2168C105.995 7.06706 105.908 6.93034 105.777 6.80664C105.654 6.67643 105.481 6.56901 105.26 6.48438C105.038 6.39974 104.752 6.35742 104.4 6.35742V5.99609H108.727V6.35742C108.368 6.35742 108.079 6.39648 107.857 6.47461C107.636 6.54622 107.46 6.64714 107.33 6.77734C107.206 6.90104 107.122 7.04427 107.076 7.20703C107.031 7.36979 107.008 7.54232 107.008 7.72461V20H106.119L96.4219 8.30078V18.2812C96.4219 18.4115 96.4414 18.5547 96.4805 18.7109C96.526 18.8672 96.6074 19.0137 96.7246 19.1504C96.8483 19.2871 97.0208 19.4043 97.2422 19.502C97.4701 19.5931 97.7695 19.6387 98.1406 19.6387V20H93.8242V19.6387C94.1758 19.6387 94.4622 19.6029 94.6836 19.5312C94.9115 19.4531 95.0872 19.3522 95.2109 19.2285C95.3411 19.1048 95.429 18.9616 95.4746 18.7988C95.5202 18.6361 95.543 18.4635 95.543 18.2812V7.23633C95.3867 7.06055 95.2435 6.91732 95.1133 6.80664C94.9831 6.69596 94.8496 6.60807 94.7129 6.54297C94.5827 6.47135 94.446 6.42253 94.3027 6.39648C94.1595 6.37044 94 6.35742 93.8242 6.35742V5.99609ZM110.211 12.998C110.211 12.4577 110.286 11.9043 110.436 11.3379C110.585 10.765 110.807 10.2148 111.1 9.6875C111.393 9.15365 111.754 8.65234 112.184 8.18359C112.62 7.70833 113.118 7.29492 113.678 6.94336C114.244 6.5918 114.876 6.3151 115.572 6.11328C116.269 5.90495 117.024 5.80078 117.838 5.80078C118.678 5.80078 119.449 5.89518 120.152 6.08398C120.862 6.27279 121.5 6.5332 122.066 6.86523C122.639 7.19727 123.141 7.59115 123.57 8.04688C124.007 8.5026 124.368 8.9974 124.654 9.53125C124.947 10.0586 125.165 10.6185 125.309 11.2109C125.458 11.8034 125.533 12.3991 125.533 12.998C125.533 13.571 125.458 14.1504 125.309 14.7363C125.165 15.3223 124.947 15.8887 124.654 16.4355C124.368 16.9824 124.007 17.4967 123.57 17.9785C123.141 18.4603 122.639 18.8802 122.066 19.2383C121.5 19.5964 120.862 19.8796 120.152 20.0879C119.449 20.2962 118.678 20.4004 117.838 20.4004C117.011 20.4004 116.249 20.2962 115.553 20.0879C114.856 19.8861 114.225 19.6061 113.658 19.248C113.098 18.89 112.604 18.4701 112.174 17.9883C111.744 17.5065 111.383 16.9922 111.09 16.4453C110.797 15.8984 110.576 15.332 110.426 14.7461C110.283 14.1536 110.211 13.571 110.211 12.998ZM113.57 12.959C113.57 13.5124 113.6 14.0592 113.658 14.5996C113.723 15.14 113.824 15.6576 113.961 16.1523C114.098 16.6406 114.273 17.0964 114.488 17.5195C114.71 17.9362 114.977 18.3008 115.289 18.6133C115.602 18.9258 115.963 19.1732 116.373 19.3555C116.783 19.5378 117.249 19.6322 117.77 19.6387C118.29 19.6387 118.762 19.5475 119.186 19.3652C119.609 19.1764 119.983 18.9225 120.309 18.6035C120.634 18.2845 120.914 17.9102 121.148 17.4805C121.383 17.0508 121.578 16.5951 121.734 16.1133C121.891 15.625 122.005 15.1204 122.076 14.5996C122.154 14.0723 122.2 13.5579 122.213 13.0566C122.213 12.5423 122.18 12.0247 122.115 11.5039C122.057 10.9831 121.956 10.485 121.812 10.0098C121.676 9.52799 121.497 9.07878 121.275 8.66211C121.054 8.24544 120.784 7.88411 120.465 7.57812C120.146 7.26562 119.778 7.02148 119.361 6.8457C118.945 6.66992 118.469 6.58203 117.936 6.58203C117.415 6.58203 116.946 6.66016 116.529 6.81641C116.119 6.97266 115.751 7.19401 115.426 7.48047C115.107 7.76693 114.83 8.10547 114.596 8.49609C114.368 8.88672 114.179 9.31966 114.029 9.79492C113.88 10.2702 113.766 10.7747 113.688 11.3086C113.616 11.8424 113.577 12.3926 113.57 12.959ZM127.047 5.99609H133.58V6.35742C133.235 6.35742 132.952 6.39323 132.73 6.46484C132.509 6.53646 132.333 6.63411 132.203 6.75781C132.073 6.88151 131.982 7.02148 131.93 7.17773C131.884 7.33398 131.861 7.5 131.861 7.67578V14.4043C131.861 15.5762 131.777 16.6374 131.607 17.5879C131.438 18.5319 131.217 19.3783 130.943 20.127C130.67 20.8822 130.357 21.5462 130.006 22.1191C129.654 22.6986 129.296 23.1966 128.932 23.6133C128.072 24.5964 127.096 25.3255 126.002 25.8008L125.826 25.4785C126.373 24.9577 126.861 24.2839 127.291 23.457C127.473 23.1055 127.652 22.7051 127.828 22.2559C128.004 21.8066 128.16 21.3021 128.297 20.7422C128.44 20.1888 128.554 19.5801 128.639 18.916C128.723 18.2454 128.766 17.5195 128.766 16.7383V7.63672C128.766 7.50651 128.74 7.36654 128.688 7.2168C128.642 7.06706 128.554 6.93034 128.424 6.80664C128.3 6.67643 128.128 6.56901 127.906 6.48438C127.685 6.39974 127.398 6.35742 127.047 6.35742V5.99609ZM150.963 19.4824C150.37 19.7233 149.83 19.8861 149.342 19.9707C148.854 20.0553 148.414 20.0977 148.023 20.0977C147.711 20.0977 147.441 20.0781 147.213 20.0391C146.985 20.0065 146.79 19.9642 146.627 19.9121C146.438 19.8535 146.275 19.7884 146.139 19.7168C145.852 19.554 145.602 19.3424 145.387 19.082C145.172 18.8216 144.977 18.5417 144.801 18.2422C144.632 17.9427 144.479 17.6335 144.342 17.3145C144.205 16.9954 144.072 16.696 143.941 16.416L143.697 15.8984C143.04 16.0872 142.424 16.3053 141.852 16.5527C141.285 16.7936 140.781 17.0345 140.338 17.2754C139.895 17.5098 139.521 17.7279 139.215 17.9297C138.915 18.125 138.704 18.2682 138.58 18.3594C138.339 18.6263 138.069 18.8639 137.77 19.0723C137.47 19.2806 137.135 19.4596 136.764 19.6094C136.393 19.7526 135.979 19.8633 135.523 19.9414C135.068 20.0195 134.566 20.0586 134.02 20.0586L133.922 19.6387C134.553 19.5345 135.097 19.3327 135.553 19.0332C136.015 18.7337 136.412 18.3659 136.744 17.9297C137.076 17.487 137.359 16.9922 137.594 16.4453C137.828 15.8919 138.036 15.3092 138.219 14.6973C138.323 14.3457 138.46 13.9746 138.629 13.584C138.805 13.1934 139.013 12.8158 139.254 12.4512C139.501 12.0801 139.781 11.735 140.094 11.416C140.413 11.0905 140.774 10.8171 141.178 10.5957C141.067 10.3874 140.956 10.1758 140.846 9.96094C140.742 9.73958 140.641 9.51823 140.543 9.29688C140.406 9.03646 140.27 8.75 140.133 8.4375C139.996 8.11849 139.833 7.82552 139.645 7.55859C139.462 7.28516 139.244 7.05729 138.99 6.875C138.743 6.69271 138.434 6.60156 138.062 6.60156C137.802 6.60156 137.545 6.63086 137.291 6.68945C137.044 6.74805 136.806 6.81966 136.578 6.9043L136.441 6.50391C137.008 6.3151 137.581 6.1556 138.16 6.02539C138.746 5.88867 139.326 5.82031 139.898 5.82031C140.172 5.82031 140.442 5.83984 140.709 5.87891C140.976 5.91146 141.233 5.97331 141.48 6.06445C141.695 6.14258 141.904 6.27279 142.105 6.45508C142.307 6.63086 142.499 6.84245 142.682 7.08984C142.864 7.33073 143.033 7.59115 143.189 7.87109C143.352 8.15104 143.502 8.43099 143.639 8.71094C143.782 8.99089 143.909 9.25781 144.02 9.51172C144.137 9.75911 144.238 9.97396 144.322 10.1562C144.895 11.3867 145.465 12.6204 146.031 13.8574C146.598 15.0879 147.206 16.3021 147.857 17.5C147.975 17.7148 148.098 17.9264 148.229 18.1348C148.365 18.3431 148.515 18.5286 148.678 18.6914C148.847 18.8542 149.033 18.9844 149.234 19.082C149.436 19.1797 149.664 19.2253 149.918 19.2188C150.009 19.2188 150.133 19.209 150.289 19.1895C150.452 19.1699 150.628 19.1211 150.816 19.043L150.963 19.4824ZM141.725 11.7188C141.555 11.9922 141.399 12.2754 141.256 12.5684C141.119 12.8613 140.992 13.1608 140.875 13.4668C140.758 13.7663 140.65 14.0658 140.553 14.3652C140.455 14.6647 140.357 14.9512 140.26 15.2246C140.162 15.5241 140.055 15.8171 139.938 16.1035C139.827 16.3835 139.7 16.6569 139.557 16.9238C140.045 16.6374 140.618 16.3379 141.275 16.0254C141.933 15.7129 142.636 15.446 143.385 15.2246L141.725 11.7188ZM150.66 5.99609H155.562L162.955 14.9805V7.63672C162.955 7.50651 162.929 7.36654 162.877 7.2168C162.831 7.06706 162.743 6.93034 162.613 6.80664C162.49 6.67643 162.317 6.56901 162.096 6.48438C161.874 6.39974 161.588 6.35742 161.236 6.35742V5.99609H165.562V6.35742C165.204 6.35742 164.915 6.39648 164.693 6.47461C164.472 6.54622 164.296 6.64714 164.166 6.77734C164.042 6.90104 163.958 7.04427 163.912 7.20703C163.867 7.36979 163.844 7.54232 163.844 7.72461V20H162.955L153.258 8.30078V18.2812C153.258 18.4115 153.277 18.5547 153.316 18.7109C153.362 18.8672 153.443 19.0137 153.561 19.1504C153.684 19.2871 153.857 19.4043 154.078 19.502C154.306 19.5931 154.605 19.6387 154.977 19.6387V20H150.66V19.6387C151.012 19.6387 151.298 19.6029 151.52 19.5312C151.747 19.4531 151.923 19.3522 152.047 19.2285C152.177 19.1048 152.265 18.9616 152.311 18.7988C152.356 18.6361 152.379 18.4635 152.379 18.2812V7.23633C152.223 7.06055 152.079 6.91732 151.949 6.80664C151.819 6.69596 151.686 6.60807 151.549 6.54297C151.419 6.47135 151.282 6.42253 151.139 6.39648C150.995 6.37044 150.836 6.35742 150.66 6.35742V5.99609Z" fill="white"/>
</svg>
