<svg width="20" height="20" viewBox="0 0 20 20" fill="none" xmlns="http://www.w3.org/2000/svg">
<path d="M10 1C5.02938 1 1 5.02938 1 10C1 14.9706 5.02938 19 10 19C14.9706 19 19 14.9706 19 10C19 5.02938 14.9706 1 10 1ZM7.79687 13.7303H5.97437V7.86531H7.79687V13.7303ZM6.87437 7.14531C6.29875 7.14531 5.92656 6.7375 5.92656 6.23312C5.92656 5.71844 6.31 5.32281 6.89781 5.32281C7.48562 5.32281 7.84562 5.71844 7.85687 6.23312C7.85687 6.7375 7.48562 7.14531 6.87437 7.14531ZM14.4531 13.7303H12.6306V10.48C12.6306 9.72344 12.3662 9.20969 11.7072 9.20969C11.2037 9.20969 10.9047 9.5575 10.7725 9.89219C10.7238 10.0113 10.7116 10.18 10.7116 10.3478V13.7294H8.88812V9.73563C8.88812 9.00344 8.86469 8.39125 8.84031 7.86437H10.4237L10.5072 8.67906H10.5437C10.7837 8.29656 11.3716 7.73219 12.355 7.73219C13.5541 7.73219 14.4531 8.53562 14.4531 10.2625V13.7303Z" fill="white"/>
</svg>
